<?xml version="1.0" encoding="utf-8"?>
<!-- Generator: Adobe Illustrator 24.0.1, SVG Export Plug-In . SVG Version: 6.00 Build 0)  -->
<svg version="1.1" id="Capa_1" xmlns="http://www.w3.org/2000/svg" xmlns:xlink="http://www.w3.org/1999/xlink" x="0px" y="0px"
	 viewBox="0 0 99 99" style="enable-background:new 0 0 99 99;" xml:space="preserve">
<style type="text/css">
	.st0{fill:#105FE8;}
</style>
<g>
	<path class="st0" d="M49.5,0.3c-27.2,0-49.2,22-49.2,49.2c0,27.2,22,49.2,49.2,49.2s49.2-22,49.2-49.2C98.7,22.3,76.7,0.3,49.5,0.3
		z M72.6,70.3c-4,6.1-9.6,9.1-16.6,9.1H26.8V19.9H56c6.9,0,12.4,3.2,16.5,9.5C76.2,35.1,78,42,78,50.2C78,58.2,76.2,64.9,72.6,70.3z
		"/>
	<path class="st0" d="M53.8,32.4H40v34.1h13.8c3.1,0,5.7-1.8,7.6-5.5c1.7-3.3,2.5-7.3,2.5-12c0-4.6-0.8-8.4-2.5-11.5
		C59.6,34.2,57,32.4,53.8,32.4z"/>
</g>
</svg>
