<?xml version="1.0" encoding="utf-8"?>
<!-- Generator: Adobe Illustrator 24.0.1, SVG Export Plug-In . SVG Version: 6.00 Build 0)  -->
<svg version="1.1" id="Capa_1" xmlns="http://www.w3.org/2000/svg" xmlns:xlink="http://www.w3.org/1999/xlink" x="0px" y="0px"
	 viewBox="0 0 99 99" style="enable-background:new 0 0 99 99;" xml:space="preserve">
<g>
	<path d="M50,0.3c-27.2,0-49.2,22-49.2,49.2c0,27.2,22,49.2,49.2,49.2s49.2-22,49.2-49.2C99.2,22.3,77.2,0.3,50,0.3z M73.1,70.3
		c-4,6.1-9.6,9.1-16.6,9.1H27.3V19.9h29.2c6.9,0,12.4,3.2,16.5,9.5c3.7,5.7,5.5,12.6,5.5,20.8C78.5,58.2,76.7,64.9,73.1,70.3z"/>
	<path d="M54.3,32.4H40.5v34.1h13.8c3.1,0,5.7-1.8,7.6-5.5c1.7-3.3,2.5-7.3,2.5-12c0-4.6-0.8-8.4-2.5-11.5
		C60.1,34.2,57.5,32.4,54.3,32.4z"/>
</g>
</svg>
